<?xml version="1.0" encoding="UTF-8"?>
<svg xmlns="http://www.w3.org/2000/svg" xmlns:xlink="http://www.w3.org/1999/xlink" width="200px" height="70px" viewBox="0 0 200 70" version="1.1">
<g id="surface1">
<path style=" stroke:none;fill-rule:nonzero;fill:rgb(0%,0%,0%);fill-opacity:1;" d="M 19.5 3.953125 C 13.199219 6.089844 12.199219 7.316406 17 7.070312 C 19.5 6.929688 20 7.035156 20 7.664062 C 20 8.261719 19.398438 8.398438 17 8.398438 C 14.699219 8.398438 14 8.539062 14 9.101562 C 14 9.835938 17.300781 11.199219 19 11.199219 C 19.601562 11.199219 20 11.410156 20 11.691406 C 20 12.320312 23.800781 13.300781 26.199219 13.300781 C 27.5 13.300781 28 13.019531 28 12.25 C 28 11.445312 28.398438 11.199219 30 11.199219 C 31.601562 11.199219 31.898438 11.375 31.398438 12.25 C 30.800781 13.195312 31 13.300781 33.199219 13.300781 C 35.699219 13.300781 39 12.355469 39 11.621094 C 39 11.375 39.601562 11.199219 40.398438 11.199219 C 42.101562 11.199219 46 9.589844 46 8.890625 C 46 8.574219 44.800781 8.398438 42.601562 8.398438 C 39.699219 8.398438 39.300781 8.296875 39.699219 7.699219 C 40.101562 7.210938 41.101562 7 43.101562 7 C 44.699219 7 46 6.929688 46 6.824219 C 46 6.195312 42.699219 4.550781 41.398438 4.550781 C 40.601562 4.550781 39.5 4.164062 39 3.710938 C 38 2.800781 35.199219 2.101562 32.5 2.101562 C 31.199219 2.101562 30.898438 2.34375 31.199219 3.148438 C 31.601562 3.988281 31.300781 4.199219 29.800781 4.199219 C 28.5 4.199219 28 3.921875 28 3.148438 C 28 1.609375 25.800781 1.820312 19.5 3.953125 Z M 26 3.675781 C 26 3.988281 25.101562 4.199219 23.898438 4.199219 C 22.101562 4.199219 22 4.128906 23 3.675781 C 23.699219 3.394531 24.601562 3.148438 25.101562 3.148438 C 25.601562 3.148438 26 3.394531 26 3.675781 Z M 36.800781 3.78125 C 37 4.023438 36.5 4.199219 35.601562 4.199219 C 34.699219 4.199219 34 3.953125 34 3.640625 C 34 3.046875 36.199219 3.148438 36.800781 3.78125 Z M 26 5.601562 C 26 6.054688 25.300781 6.300781 24 6.300781 C 22.699219 6.300781 22 6.054688 22 5.601562 C 22 5.144531 22.699219 4.898438 24 4.898438 C 25.300781 4.898438 26 5.144531 26 5.601562 Z M 31.5 6.125 C 31.5 7.035156 31.800781 7.175781 34.101562 7.070312 C 36.101562 7 36.898438 7.140625 37.300781 7.664062 C 37.699219 8.296875 37.398438 8.398438 34.300781 8.398438 C 30.898438 8.398438 30.800781 8.433594 31.398438 9.449219 C 31.898438 10.324219 31.601562 10.5 30 10.5 C 28.398438 10.5 28 10.253906 28 9.449219 C 28 8.503906 27.699219 8.398438 25 8.398438 C 22.601562 8.398438 22 8.261719 22 7.664062 C 22 7.035156 22.5 6.929688 25 7.070312 C 27.800781 7.210938 28 7.175781 28 6.054688 C 28 5.109375 28.398438 4.863281 29.699219 4.96875 C 30.898438 5.039062 31.398438 5.425781 31.5 6.125 Z M 37.601562 5.671875 C 37.699219 6.089844 37.199219 6.300781 35.898438 6.300781 C 34.601562 6.300781 34 6.054688 34 5.566406 C 34 4.691406 37.199219 4.796875 37.601562 5.671875 Z M 20 5.773438 C 20 6.089844 19.101562 6.300781 17.898438 6.300781 C 16.101562 6.300781 16 6.230469 17 5.773438 C 17.699219 5.496094 18.601562 5.25 19.101562 5.25 C 19.601562 5.25 20 5.496094 20 5.773438 Z M 42 5.773438 C 43 6.195312 42.898438 6.300781 41.300781 6.300781 C 40.199219 6.300781 39.300781 6.054688 39.300781 5.773438 C 39.300781 5.496094 39.699219 5.25 40 5.25 C 40.398438 5.25 41.300781 5.496094 42 5.773438 Z M 20 9.800781 C 20 10.429688 19.699219 10.464844 18 10.148438 C 16.898438 9.941406 16 9.625 16 9.449219 C 16 9.238281 16.898438 9.101562 18 9.101562 C 19.300781 9.101562 20 9.34375 20 9.800781 Z M 26 9.800781 C 26 10.253906 25.300781 10.5 24 10.5 C 22.699219 10.5 22 10.253906 22 9.800781 C 22 9.34375 22.699219 9.101562 24 9.101562 C 25.300781 9.101562 26 9.34375 26 9.800781 Z M 37.300781 9.800781 C 37.699219 10.324219 37.300781 10.5 35.898438 10.5 C 34.699219 10.5 34 10.253906 34 9.800781 C 34 9.414062 34.601562 9.101562 35.398438 9.101562 C 36.101562 9.101562 37 9.414062 37.300781 9.800781 Z M 43 9.378906 C 43 9.730469 40.898438 10.5 39.898438 10.5 C 39.5 10.5 39.398438 10.183594 39.699219 9.800781 C 40.199219 9.136719 43 8.785156 43 9.378906 Z M 26 11.898438 C 26 12.703125 25 12.808594 23.199219 12.179688 C 21.398438 11.550781 21.699219 11.199219 24 11.199219 C 25.300781 11.199219 26 11.445312 26 11.898438 Z M 37 11.515625 C 37 11.691406 36.300781 12.003906 35.5 12.25 C 34.199219 12.601562 34 12.566406 34 11.933594 C 34 11.515625 34.601562 11.199219 35.5 11.199219 C 36.300781 11.199219 37 11.339844 37 11.515625 Z M 37 11.515625 "/>
<path style=" stroke:none;fill-rule:nonzero;fill:rgb(0%,0%,0%);fill-opacity:1;" d="M 133.5 5.179688 C 133 5.320312 132.5 6.300781 132.5 7.386719 C 132.5 8.960938 132.800781 9.308594 134 9.203125 C 135.101562 9.101562 135.398438 8.644531 135.199219 7.421875 C 134.800781 5.074219 134.601562 4.898438 133.5 5.179688 Z M 133.5 5.179688 "/>
<path style=" stroke:none;fill-rule:nonzero;fill:rgb(0%,0%,0%);fill-opacity:1;" d="M 140 4.96875 C 139.898438 5.039062 139.800781 6.019531 139.699219 7.210938 C 139.5 9.171875 139.699219 9.308594 141.5 9.171875 C 142.601562 9.066406 142.898438 8.925781 142.199219 8.820312 C 141.398438 8.75 141.199219 8.15625 141.601562 6.789062 C 142.101562 5.496094 141.898438 4.898438 141.101562 4.898438 C 140.5 4.898438 140 4.933594 140 4.96875 Z M 140 4.96875 "/>
<path style=" stroke:none;fill-rule:nonzero;fill:rgb(0%,0%,0%);fill-opacity:1;" d="M 126 5.601562 C 126 5.773438 126.5 5.949219 127 5.949219 C 127.601562 5.949219 128 5.773438 128 5.601562 C 128 5.390625 127.601562 5.25 127 5.25 C 126.5 5.25 126 5.390625 126 5.601562 Z M 126 5.601562 "/>
<path style=" stroke:none;fill-rule:nonzero;fill:rgb(0%,0%,0%);fill-opacity:1;" d="M 147 5.601562 C 147 5.773438 147.5 5.949219 148 5.949219 C 148.601562 5.949219 149 5.773438 149 5.601562 C 149 5.390625 148.601562 5.25 148 5.25 C 147.5 5.25 147 5.390625 147 5.601562 Z M 147 5.601562 "/>
<path style=" stroke:none;fill-rule:nonzero;fill:rgb(0%,0%,0%);fill-opacity:1;" d="M 59.5 7.351562 C 59.5 8.433594 59.898438 9.101562 60.699219 9.101562 C 61.300781 9.101562 61.601562 8.785156 61.300781 8.398438 C 60.5 7.421875 62.5 7.523438 64.5 8.609375 C 65.398438 9.101562 66.398438 9.414062 66.699219 9.308594 C 67.101562 9.203125 66.5 8.785156 65.5 8.398438 C 64.101562 7.839844 64 7.628906 65 7.175781 C 66.800781 6.40625 65.5 5.601562 62.300781 5.601562 C 59.601562 5.601562 59.5 5.671875 59.5 7.351562 Z M 64.5 6.683594 C 64.5 6.929688 63.699219 7.210938 62.800781 7.28125 C 61.601562 7.351562 61.300781 7.210938 61.699219 6.648438 C 62.300781 5.84375 64.5 5.878906 64.5 6.683594 Z M 64.5 6.683594 "/>
<path style=" stroke:none;fill-rule:nonzero;fill:rgb(0%,0%,0%);fill-opacity:1;" d="M 109.699219 5.84375 C 110.5 5.949219 110.800781 6.371094 110.5 6.859375 C 110.199219 7.316406 109.800781 8.085938 109.5 8.574219 C 109.101562 9.171875 109.300781 9.378906 110.300781 9.238281 C 111.101562 9.136719 111.5 8.609375 111.300781 7.769531 L 111 6.476562 L 112.800781 7.839844 C 114.699219 9.308594 115.5 9.238281 117 7.421875 L 117.800781 6.476562 L 118 7.523438 C 118.101562 8.085938 118.199219 8.679688 118.101562 8.820312 C 118.101562 8.996094 118.601562 9.101562 119.398438 9.101562 C 120.5 9.101562 120.601562 8.820312 119.898438 7.628906 C 119.101562 6.546875 119.199219 6.125 120.199219 5.914062 C 121.199219 5.671875 121 5.601562 119.699219 5.601562 C 118.601562 5.601562 117.300781 6.089844 116.300781 6.894531 L 114.699219 8.226562 L 113.699219 6.894531 C 113 5.878906 112.300781 5.601562 110.699219 5.636719 C 109.5 5.636719 109.101562 5.738281 109.699219 5.84375 Z M 109.699219 5.84375 "/>
<path style=" stroke:none;fill-rule:nonzero;fill:rgb(0%,0%,0%);fill-opacity:1;" d="M 157.5 6.613281 C 154.601562 6.824219 154.5 6.929688 154.5 8.574219 C 154.5 10.078125 154.800781 10.324219 156.601562 10.429688 C 157.699219 10.5 159.300781 10.289062 160 10.011719 C 161.101562 9.519531 160.699219 9.378906 157.898438 8.925781 C 155.101562 8.503906 154.898438 8.433594 156.800781 8.398438 C 158.300781 8.398438 159.398438 8.085938 160.101562 7.488281 C 161.300781 6.371094 161.300781 6.371094 157.5 6.613281 Z M 158.5 7.316406 C 159.199219 7.734375 157.300781 8.15625 156 7.875 C 154.898438 7.628906 155.601562 7 157 7 C 157.5 7 158.101562 7.140625 158.5 7.316406 Z M 159 9.800781 C 159 9.976562 158.300781 10.148438 157.5 10.148438 C 156.699219 10.148438 156 9.976562 156 9.800781 C 156 9.589844 156.699219 9.449219 157.5 9.449219 C 158.300781 9.449219 159 9.589844 159 9.800781 Z M 159 9.800781 "/>
<path style=" stroke:none;fill-rule:nonzero;fill:rgb(0%,0%,0%);fill-opacity:1;" d="M 70.800781 7.070312 C 73 8.050781 73.199219 9.136719 71.300781 9.871094 C 69.898438 10.429688 69.898438 10.570312 71 10.429688 C 73.199219 10.21875 78.199219 6.648438 76.398438 6.648438 C 75.601562 6.648438 75.101562 6.753906 75.101562 6.894531 C 75.398438 7.558594 74.898438 8.050781 74 8.050781 C 73.5 8.050781 73 7.734375 73 7.351562 C 73 6.929688 72.300781 6.648438 71.398438 6.648438 C 70.199219 6.648438 70 6.789062 70.800781 7.070312 Z M 70.800781 7.070312 "/>
<path style=" stroke:none;fill-rule:nonzero;fill:rgb(0%,0%,0%);fill-opacity:1;" d="M 81 7 C 81 7.175781 81.601562 7.246094 82.398438 7.140625 C 83.199219 7.035156 84.101562 7.105469 84.398438 7.316406 C 84.800781 7.488281 84.101562 7.734375 83 7.875 C 80 8.226562 80.5 9.066406 83.800781 9.03125 C 86.300781 8.996094 86.5 8.890625 86.199219 7.839844 C 85.898438 6.859375 85.398438 6.648438 83.398438 6.648438 C 82.101562 6.648438 81 6.789062 81 7 Z M 84.5 8.398438 C 84.199219 8.574219 83.398438 8.75 82.898438 8.75 C 82.300781 8.75 82.199219 8.574219 82.5 8.398438 C 82.800781 8.191406 83.601562 8.050781 84.101562 8.050781 C 84.699219 8.050781 84.800781 8.191406 84.5 8.398438 Z M 84.5 8.398438 "/>
<path style=" stroke:none;fill-rule:nonzero;fill:rgb(0%,0%,0%);fill-opacity:1;" d="M 91.5 7.875 C 91.5 8.539062 92 9.101562 92.5 9.101562 C 93.101562 9.101562 93.601562 8.679688 93.5 8.121094 C 93.5 7.523438 94 7.175781 95 7.175781 C 96 7.175781 96.398438 7.453125 96.199219 8.121094 C 96 8.785156 96.398438 9.101562 97.300781 9.101562 C 98.398438 9.101562 98.601562 8.820312 98.101562 7.945312 C 97.5 7.035156 96.898438 6.789062 94.5 6.71875 C 91.699219 6.613281 91.5 6.683594 91.5 7.875 Z M 91.5 7.875 "/>
<path style=" stroke:none;fill-rule:nonzero;fill:rgb(0%,0%,0%);fill-opacity:1;" d="M 125.5 8.015625 C 125.398438 8.820312 125.800781 9.308594 126.5 9.238281 C 127.800781 9.03125 128 6.648438 126.601562 6.648438 C 126 6.648438 125.5 7.28125 125.5 8.015625 Z M 125.5 8.015625 "/>
<path style=" stroke:none;fill-rule:nonzero;fill:rgb(0%,0%,0%);fill-opacity:1;" d="M 146.5 7.980469 C 146.5 9.03125 146.898438 9.308594 148 9.203125 C 149.199219 9.101562 149.5 8.714844 149.199219 7.839844 C 148.601562 6.195312 146.5 6.300781 146.5 7.980469 Z M 146.5 7.980469 "/>
<path style=" stroke:none;fill-rule:nonzero;fill:rgb(0%,0%,0%);fill-opacity:1;" d="M 165 6.964844 C 165 7.175781 165.601562 7.246094 166.398438 7.140625 C 167.300781 7 167.800781 7.246094 167.800781 7.839844 C 167.800781 8.328125 167.300781 8.75 166.800781 8.75 C 166.300781 8.75 166.199219 8.574219 166.601562 8.363281 C 167 8.121094 166.800781 8.015625 166.101562 8.085938 C 165.398438 8.191406 164.898438 8.398438 164.898438 8.574219 C 165.101562 9.066406 169.898438 9.449219 170.601562 9.066406 C 170.898438 8.890625 170.699219 8.75 170.101562 8.75 C 169.601562 8.75 169.199219 8.328125 169.300781 7.804688 C 169.5 7.035156 169 6.789062 167.300781 6.71875 C 166 6.648438 165 6.753906 165 6.964844 Z M 165 6.964844 "/>
<path style=" stroke:none;fill-rule:nonzero;fill:rgb(0%,0%,0%);fill-opacity:1;" d="M 175.5 8.050781 C 175.398438 8.855469 175.800781 9.308594 176.5 9.238281 C 177.101562 9.136719 177.601562 8.679688 177.5 8.15625 C 177.5 7.664062 178.101562 7.175781 178.898438 7.070312 C 179.898438 6.964844 180.101562 7.210938 179.800781 8.121094 C 179.5 9.171875 179.699219 9.308594 181.300781 9.171875 C 182.300781 9.066406 182.800781 8.890625 182.300781 8.785156 C 181.898438 8.679688 181.5 8.191406 181.5 7.699219 C 181.5 6.964844 181 6.824219 178.5 6.753906 C 175.699219 6.71875 175.5 6.789062 175.5 8.050781 Z M 175.5 8.050781 "/>
</g>
</svg>
