<?xml version="1.0" standalone="no"?>
<!DOCTYPE svg PUBLIC "-//W3C//DTD SVG 1.0//EN" "http://www.w3.org/TR/2001/REC-SVG-20010904/DTD/svg10.dtd">
<svg xmlns="http://www.w3.org/2000/svg" xmlns:xlink="http://www.w3.org/1999/xlink" id="body_1" width="267" height="267">

<g transform="matrix(1.335 0 0 1.335 0 0)">
	<g transform="matrix(0.1 0 -0 -0.1 0 200)">
        <path d="M195 1887C 132 1826 122 1791 170 1798C 195 1802 200 1799 200 1781C 200 1764 194 1760 170 1760C 147 1760 140 1756 140 1740C 140 1719 173 1680 190 1680C 196 1680 200 1674 200 1666C 200 1648 238 1620 262 1620C 275 1620 280 1628 280 1650C 280 1673 284 1680 300 1680C 316 1680 319 1675 314 1650C 308 1623 310 1620 332 1620C 357 1620 390 1647 390 1668C 390 1675 396 1680 404 1680C 421 1680 460 1726 460 1746C 460 1755 448 1760 426 1760C 397 1760 393 1763 397 1780C 401 1794 411 1800 431 1800C 447 1800 460 1802 460 1805C 460 1823 427 1870 414 1870C 406 1870 395 1881 390 1894C 380 1920 352 1940 325 1940C 312 1940 309 1933 312 1910C 316 1886 313 1880 298 1880C 285 1880 280 1888 280 1910C 280 1954 258 1948 195 1887zM260 1895C 260 1886 251 1880 239 1880C 221 1880 220 1882 230 1895C 237 1903 246 1910 251 1910C 256 1910 260 1903 260 1895zM368 1892C 370 1885 365 1880 356 1880C 347 1880 340 1887 340 1896C 340 1913 362 1910 368 1892zM260 1840C 260 1827 253 1820 240 1820C 227 1820 220 1827 220 1840C 220 1853 227 1860 240 1860C 253 1860 260 1853 260 1840zM315 1825C 315 1799 318 1795 341 1798C 361 1800 369 1796 373 1781C 377 1763 374 1760 343 1760C 309 1760 308 1759 314 1730C 319 1705 316 1700 300 1700C 284 1700 280 1707 280 1730C 280 1757 277 1760 250 1760C 226 1760 220 1764 220 1781C 220 1799 225 1802 250 1798C 278 1794 280 1795 280 1827C 280 1854 284 1861 297 1858C 309 1856 314 1845 315 1825zM376 1838C 377 1826 372 1820 359 1820C 346 1820 340 1827 340 1841C 340 1866 372 1863 376 1838zM200 1835C 200 1826 191 1820 179 1820C 161 1820 160 1822 170 1835C 177 1843 186 1850 191 1850C 196 1850 200 1843 200 1835zM420 1835C 430 1823 429 1820 413 1820C 402 1820 393 1827 393 1835C 393 1843 397 1850 400 1850C 404 1850 413 1843 420 1835zM200 1720C 200 1702 197 1701 180 1710C 169 1716 160 1725 160 1730C 160 1736 169 1740 180 1740C 193 1740 200 1733 200 1720zM260 1720C 260 1707 253 1700 240 1700C 227 1700 220 1707 220 1720C 220 1733 227 1740 240 1740C 253 1740 260 1733 260 1720zM373 1720C 377 1705 373 1700 359 1700C 347 1700 340 1707 340 1720C 340 1731 346 1740 354 1740C 361 1740 370 1731 373 1720zM430 1732C 430 1722 409 1700 399 1700C 395 1700 394 1709 397 1720C 402 1739 430 1749 430 1732zM260 1660C 260 1637 250 1634 232 1652C 214 1670 217 1680 240 1680C 253 1680 260 1673 260 1660zM370 1671C 370 1666 363 1657 355 1650C 342 1640 340 1641 340 1659C 340 1671 346 1680 355 1680C 363 1680 370 1676 370 1671z" stroke="none" fill="#000000" fill-rule="nonzero" />
        <path d="M1335 1852C 1330 1848 1325 1820 1325 1789C 1325 1744 1328 1734 1340 1737C 1351 1740 1354 1753 1352 1788C 1348 1855 1346 1860 1335 1852z" stroke="none" fill="#000000" fill-rule="nonzero" />
        <path d="M1400 1858C 1399 1856 1398 1828 1397 1794C 1395 1738 1397 1734 1415 1738C 1426 1741 1429 1745 1422 1748C 1414 1750 1412 1767 1416 1806C 1421 1843 1419 1860 1411 1860C 1405 1860 1400 1859 1400 1858z" stroke="none" fill="#000000" fill-rule="nonzero" />
        <path d="M1260 1840C 1260 1835 1265 1830 1270 1830C 1276 1830 1280 1835 1280 1840C 1280 1846 1276 1850 1270 1850C 1265 1850 1260 1846 1260 1840z" stroke="none" fill="#000000" fill-rule="nonzero" />
        <path d="M1470 1840C 1470 1835 1475 1830 1480 1830C 1486 1830 1490 1835 1490 1840C 1490 1846 1486 1850 1480 1850C 1475 1850 1470 1846 1470 1840z" stroke="none" fill="#000000" fill-rule="nonzero" />
        <path d="M595 1790C 595 1759 599 1740 607 1740C 613 1740 616 1749 613 1760C 605 1788 625 1785 645 1754C 654 1740 664 1731 667 1734C 671 1737 665 1749 655 1760C 641 1776 640 1782 650 1795C 668 1817 655 1840 623 1840C 596 1840 595 1838 595 1790zM645 1809C 645 1802 637 1794 628 1792C 616 1790 613 1794 617 1810C 623 1833 645 1832 645 1809z" stroke="none" fill="#000000" fill-rule="nonzero" />
        <path d="M1097 1833C 1105 1830 1108 1818 1105 1804C 1102 1791 1098 1769 1095 1755C 1091 1738 1093 1732 1103 1736C 1111 1739 1115 1754 1113 1778L1113 1778L1110 1815L1128 1776C 1147 1734 1155 1736 1170 1788L1170 1788L1178 1815L1180 1785C 1181 1769 1182 1752 1181 1748C 1181 1743 1186 1740 1194 1740C 1205 1740 1206 1748 1199 1782C 1191 1813 1192 1825 1202 1831C 1212 1838 1210 1840 1197 1840C 1186 1840 1173 1826 1163 1803L1163 1803L1147 1765L1137 1803C 1130 1832 1123 1840 1107 1839C 1095 1839 1091 1836 1097 1833z" stroke="none" fill="#000000" fill-rule="nonzero" />
        <path d="M1575 1811C 1546 1805 1545 1802 1545 1755C 1545 1712 1548 1705 1566 1702C 1577 1700 1593 1706 1600 1714C 1611 1728 1607 1732 1579 1745C 1551 1757 1549 1759 1568 1760C 1583 1760 1594 1769 1601 1786C 1613 1818 1613 1818 1575 1811zM1585 1791C 1592 1779 1573 1767 1560 1775C 1549 1782 1556 1800 1570 1800C 1575 1800 1581 1796 1585 1791zM1590 1720C 1590 1715 1583 1710 1575 1710C 1567 1710 1560 1715 1560 1720C 1560 1726 1567 1730 1575 1730C 1583 1730 1590 1726 1590 1720z" stroke="none" fill="#000000" fill-rule="nonzero" />
        <path d="M708 1798C 730 1770 732 1739 713 1718C 699 1702 699 1698 710 1702C 732 1708 782 1810 764 1810C 756 1810 751 1807 751 1803C 754 1784 749 1770 740 1770C 735 1770 730 1779 730 1790C 730 1802 723 1810 714 1810C 702 1810 700 1806 708 1798z" stroke="none" fill="#000000" fill-rule="nonzero" />
        <path d="M810 1800C 810 1795 816 1793 824 1796C 832 1799 841 1797 844 1791C 848 1786 841 1779 830 1775C 800 1765 805 1741 838 1742C 863 1743 865 1746 862 1776C 859 1804 854 1810 834 1810C 821 1810 810 1806 810 1800zM845 1760C 842 1755 834 1750 829 1750C 823 1750 822 1755 825 1760C 828 1766 836 1770 841 1770C 847 1770 848 1766 845 1760z" stroke="none" fill="#000000" fill-rule="nonzero" />
        <path d="M915 1775C 915 1756 920 1740 925 1740C 931 1740 936 1752 935 1768C 935 1785 940 1795 950 1795C 960 1795 964 1787 962 1768C 960 1749 964 1740 973 1740C 984 1740 986 1748 981 1773C 975 1799 969 1806 945 1808C 917 1811 915 1809 915 1775z" stroke="none" fill="#000000" fill-rule="nonzero" />
        <path d="M1255 1771C 1254 1748 1258 1734 1265 1736C 1278 1742 1280 1810 1266 1810C 1260 1810 1255 1792 1255 1771z" stroke="none" fill="#000000" fill-rule="nonzero" />
        <path d="M1465 1772C 1465 1742 1469 1734 1480 1737C 1492 1740 1495 1751 1492 1776C 1486 1823 1465 1820 1465 1772z" stroke="none" fill="#000000" fill-rule="nonzero" />
        <path d="M1650 1801C 1650 1795 1656 1793 1664 1796C 1673 1800 1678 1793 1678 1776C 1678 1762 1673 1750 1668 1750C 1663 1750 1662 1755 1666 1761C 1670 1768 1668 1771 1661 1769C 1654 1766 1649 1760 1649 1755C 1651 1741 1699 1730 1706 1741C 1709 1746 1707 1750 1701 1750C 1696 1750 1692 1762 1693 1777C 1695 1799 1690 1806 1673 1808C 1660 1810 1650 1807 1650 1801z" stroke="none" fill="#000000" fill-rule="nonzero" />
        <path d="M1755 1770C 1754 1747 1758 1734 1765 1736C 1771 1739 1776 1752 1775 1767C 1775 1781 1781 1795 1789 1798C 1799 1801 1801 1794 1798 1768C 1795 1738 1797 1734 1813 1738C 1823 1741 1828 1746 1823 1749C 1819 1752 1815 1766 1815 1780C 1815 1801 1810 1805 1785 1807C 1757 1808 1755 1806 1755 1770z" stroke="none" fill="#000000" fill-rule="nonzero" />
	</g>
</g>
</svg>